<?xml version="1.0" encoding="UTF-8" standalone="no"?>
<!-- Created with Inkscape (http://www.inkscape.org/) -->

<svg
   width="198.67281mm"
   height="24.196146mm"
   viewBox="0 0 198.67281 24.196146"
   version="1.1"
   id="svg1"
   xml:space="preserve"
   inkscape:version="1.3.2 (091e20e, 2023-11-25, custom)"
   sodipodi:docname="pokemoncut.svg"
   xmlns:inkscape="http://www.inkscape.org/namespaces/inkscape"
   xmlns:sodipodi="http://sodipodi.sourceforge.net/DTD/sodipodi-0.dtd"
   xmlns="http://www.w3.org/2000/svg"
   xmlns:svg="http://www.w3.org/2000/svg"><sodipodi:namedview
     id="namedview1"
     pagecolor="#ffffff"
     bordercolor="#000000"
     borderopacity="0.25"
     inkscape:showpageshadow="2"
     inkscape:pageopacity="0.0"
     inkscape:pagecheckerboard="0"
     inkscape:deskcolor="#d1d1d1"
     inkscape:document-units="mm"
     inkscape:zoom="0.6877385"
     inkscape:cx="207.20085"
     inkscape:cy="26.172739"
     inkscape:window-width="1368"
     inkscape:window-height="842"
     inkscape:window-x="-6"
     inkscape:window-y="1073"
     inkscape:window-maximized="1"
     inkscape:current-layer="layer1" /><defs
     id="defs1"><rect
       x="-94.512665"
       y="306.80267"
       width="202.11169"
       height="184.66321"
       id="rect2" /></defs><g
     inkscape:label="Layer 1"
     inkscape:groupmode="layer"
     id="layer1"
     transform="translate(-49.989515,-141.59557)"><path
       d="m 98.226466,146.47755 c -0.677334,0 -1.241779,-0.56444 -1.241779,-1.24178 0,-0.67733 0.564445,-1.24178 1.241779,-1.24178 0.677334,0 1.241779,0.56445 1.241779,1.24178 0,0.67734 -0.564445,1.24178 -1.241779,1.24178 z m -13.569258,3.90596 c 0,0.72249 0.4064,1.12889 1.12889,1.12889 h 4.651027 v 11.60499 c 0,0.72249 0.4064,1.12889 1.12889,1.12889 h 1.106312 c 0.722489,0 1.12889,-0.4064 1.12889,-1.12889 V 151.5124 h 4.71876 c 0.72249,0 1.12889,-0.4064 1.12889,-1.12889 v -1.35467 c 0,-0.6096 -0.293511,-0.99342 -0.812801,-1.10631 1.219204,-0.27093 2.144894,-1.35467 2.144894,-2.68676 0,-1.51271 -1.219204,-2.73191 -2.731916,-2.73191 -1.535291,0 -2.754492,1.2192 -2.754492,2.73191 0,1.28694 0.857956,2.3481 2.05458,2.66418 h -3.747915 v -1.44498 c 0,-0.72248 -0.406401,-1.12889 -1.12889,-1.12889 h -1.106312 c -0.72249,0 -1.12889,0.40641 -1.12889,1.12889 v 1.44498 h -4.651027 c -0.72249,0 -1.12889,0.4064 -1.12889,1.12889 z m 0.428978,11.6953 c -0.158045,0.76765 0.225778,1.2192 1.016001,1.2192 h 0.948267 c 0.677334,0 1.106313,-0.33866 1.219202,-1.016 0.4064,-2.50613 0.6096,-4.4704 0.677334,-8.21832 0,-0.76764 -0.406401,-1.17404 -1.12889,-1.17404 h -0.745068 c -0.722489,0 -1.12889,0.4064 -1.151468,1.12889 -0.06773,3.27378 -0.4064,5.80249 -0.835378,8.06027 z m 10.272899,-8.01512 c 0.06773,3.74792 0.293512,5.68961 0.677334,8.21832 0.112889,0.67734 0.541867,1.016 1.219201,1.016 h 0.948268 c 0.790223,0 1.174046,-0.45155 1.016001,-1.2192 -0.4064,-2.14489 -0.72249,-4.56071 -0.835379,-7.60872 -0.02258,-1.03857 -0.428978,-1.58044 -1.151467,-1.58044 h -0.745068 c -0.722489,0 -1.12889,0.4064 -1.12889,1.17404 z m 9.572975,10.16001 c 4.58329,-1.67075 8.57956,-5.59929 9.12143,-11.6953 h 2.4384 c 0.72249,0 1.12889,-0.4064 1.12889,-1.12889 v -1.35466 c 0,-0.72249 -0.4064,-1.12889 -1.12889,-1.12889 h -8.2409 c 0.24836,-0.72249 0.47414,-1.51272 0.65476,-2.3481 0.15805,-0.79022 -0.24835,-1.24178 -1.016,-1.24178 h -1.28693 c -0.67734,0 -1.08374,0.33867 -1.21921,1.01601 -0.51929,2.37067 -1.53529,4.69618 -3.02542,6.32178 -0.4064,0.42898 -0.58702,0.8128 -0.58702,1.37725 v 1.89653 c 0,0.92569 0.63217,1.30951 1.37724,0.72249 0.38382,-0.29351 0.83538,-0.67733 1.33209,-1.17404 0.76765,-0.74507 1.51271,-1.71592 2.2352,-2.9577 h 3.7705 c -0.51929,3.63503 -2.61903,6.63788 -5.93796,8.06028 -0.6096,0.27093 -0.90312,0.65475 -0.90312,1.30951 v 1.37725 c 0,0.8128 0.49672,1.24178 1.28694,0.94826 z m 23.52605,-0.51929 c 0.8128,0.0226 2.37067,0.0226 3.90596,0 1.03858,0 1.58045,-0.4064 1.58045,-1.12889 v -1.39982 c 0,-0.74507 -0.4064,-1.12889 -1.15147,-1.10631 -1.35467,0.0452 -3.13832,0.0903 -3.95112,0.0903 -0.92569,0 -1.58044,-0.63218 -1.58044,-1.98685 v -1.71591 h 6.54756 c 0.72249,0 1.12889,-0.4064 1.12889,-1.12889 v -1.26436 c 0,-0.72249 -0.4064,-1.12889 -1.12889,-1.12889 h -6.54756 v -2.88995 h 5.6896 c 0.72249,0 1.12889,-0.40641 1.12889,-1.12889 v -1.35467 c 0,-0.72249 -0.4064,-1.12889 -1.12889,-1.12889 h -11.44694 c -0.72249,0 -1.12889,0.4064 -1.12889,1.12889 v 1.35467 c 0,0.72248 0.4064,1.12889 1.12889,1.12889 h 2.32551 v 2.88995 h -3.00285 c -0.72249,0 -1.12889,0.4064 -1.12889,1.12889 v 1.26436 c 0,0.72249 0.4064,1.12889 1.12889,1.12889 h 3.00285 v 2.09974 c 0,3.47698 1.69334,5.03485 4.62845,5.14773 z m 9.97938,-13.65956 h 4.7865 c 0.72249,0 1.12889,-0.40641 1.12889,-1.12889 v -1.26436 c 0,-0.72249 -0.4064,-1.12889 -1.12889,-1.12889 h -4.7865 c -0.72248,0 -1.12889,0.4064 -1.12889,1.12889 v 1.26436 c 0,0.72248 0.40641,1.12889 1.12889,1.12889 z m -1.12889,12.57583 c 0,0.76765 0.45156,1.17405 1.19663,1.06116 7.36036,-1.10632 11.8985,-5.75734 13.54668,-12.21459 0.2032,-0.72249 -0.22578,-1.15147 -1.016,-1.15147 h -1.30951 c -0.65476,0 -1.06116,0.31609 -1.26436,0.97084 -1.37725,4.5833 -4.51556,7.96997 -10.0697,8.73761 -0.72249,0.0903 -1.08374,0.49671 -1.08374,1.19663 z m 18.49123,1.35467 c 4.53813,-2.82223 5.96054,-7.6313 6.00569,-11.67272 h 3.54472 c 0.0226,2.70933 0,4.83164 -0.15805,6.88622 -0.0903,1.01601 -0.4064,1.35467 -0.90311,1.46756 -0.69991,0.18062 -1.44498,0.11289 -2.09974,-0.0226 -0.79022,-0.15804 -1.24177,0.18063 -1.24177,0.97085 v 1.28693 c 0,0.65476 0.27093,1.10632 0.92569,1.26436 0.97084,0.22578 2.2352,0.31609 3.31893,0.11289 1.64818,-0.29351 3.11574,-1.30951 3.36409,-4.65103 0.13547,-1.71591 0.2032,-4.85422 0.2032,-7.36036 v -2.37067 c 0,-0.72249 -0.4064,-1.12889 -1.12889,-1.12889 h -5.73476 v -2.032 c 0,-0.72249 -0.4064,-1.12889 -1.12889,-1.12889 h -1.15146 c -0.72249,0 -1.12889,0.4064 -1.12889,1.12889 v 2.032 h -2.79965 c -0.72249,0 -1.12889,0.4064 -1.12889,1.12889 v 1.28694 c 0,0.72248 0.4064,1.12889 1.12889,1.12889 h 2.70933 c -0.0677,3.22862 -0.76764,5.62187 -3.29635,7.78934 -0.47414,0.4064 -0.67734,0.8128 -0.67734,1.39982 v 1.69334 c 0,0.88053 0.6096,1.26435 1.37725,0.79022 z m 18.17513,-7.24748 h 0.45156 c 0.65475,0 0.99342,-0.38382 0.88053,-1.03857 l -1.03858,-5.84765 c -0.0903,-0.58703 -0.45155,-0.85796 -1.03858,-0.85796 h -0.38382 c -0.65476,0 -0.99342,0.38382 -0.88053,1.03858 l 0.97084,5.84765 c 0.11289,0.58702 0.47414,0.85795 1.03858,0.85795 z m -0.76764,6.38952 c 0,0.67734 0.4064,1.016 1.06115,0.88054 3.25121,-0.76765 5.57672,-2.66418 7.17974,-5.17032 1.58045,-2.46098 2.46098,-5.53156 2.79965,-8.80534 0.0677,-0.63218 -0.27093,-0.99343 -0.90311,-0.99343 h -1.03858 c -0.58702,0 -0.92569,0.29352 -0.99342,0.90312 -0.22578,2.32551 -0.85796,4.80907 -2.09974,6.86365 -1.15147,1.89653 -2.82222,3.40925 -5.14774,4.064 -0.56444,0.15805 -0.85795,0.47414 -0.85795,1.06116 z m 2.52871,-13.09512 0.99342,5.84765 c 0.0903,0.58702 0.45156,0.85795 1.03858,0.85795 h 0.42898 c 0.65476,0 0.99342,-0.38382 0.88053,-1.03857 l -1.03858,-5.84765 c -0.0903,-0.58703 -0.45155,-0.85796 -1.016,-0.85796 h -0.38382 c -0.65476,0 -1.016,0.38382 -0.90311,1.03858 z m 12.86933,14.40463 h 1.30952 c 0.72249,0 1.12889,-0.4064 1.12889,-1.12889 v -8.15058 h 8.35378 c 0.72249,0 1.12889,-0.4064 1.12889,-1.12889 v -1.28694 c 0,-0.72249 -0.4064,-1.12889 -1.12889,-1.12889 h -8.35378 v -4.96711 c 0,-0.72249 -0.4064,-1.12889 -1.12889,-1.12889 h -1.30952 c -0.72249,0 -1.12889,0.4064 -1.12889,1.12889 v 16.66241 c 0,0.72249 0.4064,1.12889 1.12889,1.12889 z m 28.92218,-17.92677 c 0.56445,0 0.85796,-0.4064 0.85796,-1.12889 v -1.30951 c 0,-0.72249 -0.31609,-1.12889 -0.85796,-1.12889 -0.54187,0 -0.85795,0.4064 -0.85795,1.12889 v 1.30951 c 0,0.72249 0.31608,1.12889 0.85795,1.12889 z m -14.35948,3.81565 c 0,0.72249 0.4064,1.12889 1.12889,1.12889 h 1.60302 c -0.42897,3.20605 -1.17404,7.24747 -2.25778,11.2889 -0.22577,0.79022 0.13547,1.26436 0.94827,1.26436 h 1.10631 c 0.67734,0 1.10632,-0.31609 1.24178,-0.99343 1.12889,-4.83165 1.8288,-9.09885 2.14489,-11.55983 h 2.09974 l 0.0452,1.69333 c 0.0226,0.74507 0.42897,1.12889 1.17404,1.10632 2.19005,-0.0452 3.61245,-0.0452 4.85423,0 0.72249,0.0226 1.12889,-0.36125 1.12889,-1.10632 v -1.03857 c 0,-0.72249 -0.38382,-1.12889 -1.12889,-1.12889 -1.4224,-0.0226 -2.98027,-0.0226 -4.62845,0.0226 v -1.6256 c 0,-0.72249 -0.4064,-1.12889 -1.12889,-1.12889 h -2.07716 l 0.11289,-1.33209 c 0.0677,-0.76764 -0.33867,-1.17404 -1.08373,-1.17404 h -0.85796 c -0.69991,0 -1.10631,0.38382 -1.17405,1.10631 l -0.13546,1.39982 h -1.98685 c -0.72249,0 -1.12889,0.4064 -1.12889,1.12889 z m 5.82507,9.6633 c 0,1.44498 0.45156,2.61902 1.71592,3.40925 0.83537,0.51928 1.60302,0.6096 2.59644,0.67733 1.69334,0.11289 3.38667,0.0452 4.62845,-0.0226 0.51929,-0.0452 0.76765,-0.45155 0.76765,-1.15147 v -1.2192 c 0,-0.74506 -0.4064,-1.12889 -1.17405,-1.08373 -0.74507,0.0451 -1.76107,0.0903 -2.52871,0.0903 -2.79965,0 -3.34152,-0.65476 -2.57387,-2.4384 0.38382,-0.83538 0.0903,-1.35467 -0.76765,-1.35467 h -0.76764 c -0.6096,0 -1.03858,0.22578 -1.33209,0.76764 -0.38382,0.74507 -0.56445,1.39983 -0.56445,2.32552 z m 4.9897,-14.60784 c 0,0.72249 0.31609,1.12889 0.85795,1.12889 0.56445,0 0.85796,-0.4064 0.85796,-1.12889 v -1.30951 c 0,-0.72249 -0.31609,-1.12889 -0.85796,-1.12889 -0.54186,0 -0.85795,0.4064 -0.85795,1.12889 z m 23.05192,1.12889 c 0.56445,0 0.85796,-0.4064 0.85796,-1.12889 v -1.30951 c 0,-0.72249 -0.31609,-1.12889 -0.85796,-1.12889 -0.54186,0 -0.85795,0.4064 -0.85795,1.12889 v 1.30951 c 0,0.72249 0.31609,1.12889 0.85795,1.12889 z m -15.71415,5.14774 c 0,0.72249 0.4064,1.12889 1.12889,1.12889 h 0.85796 c 0.0226,1.6256 -0.0677,3.40925 0.0452,5.05743 0.27093,4.56071 2.16746,6.02827 6.47982,6.27663 1.24178,0.0677 2.82223,0.0677 4.33494,-0.0452 0.79023,-0.0677 1.19663,-0.49671 1.19663,-1.19662 v -1.19663 c 0,-0.76764 -0.45156,-1.15147 -1.21921,-1.03858 -1.51271,0.2032 -2.77707,0.24836 -4.31236,0.15805 -2.59644,-0.18062 -3.09315,-1.12889 -3.22862,-3.29636 -0.11289,-2.05458 -0.0452,-3.97369 -0.0226,-4.71876 h 4.96712 v 1.55787 c 0,1.60302 -0.36125,1.94169 -1.39983,1.91911 -0.24835,0 -0.6096,-0.0226 -1.08373,-0.0903 -0.72249,-0.11289 -1.15147,0.24836 -1.15147,1.016 v 0.65476 c 0,0.65475 0.29351,1.10631 0.94827,1.26435 0.49671,0.11289 0.92569,0.15805 1.33209,0.18063 2.032,0.11288 3.20605,-0.13547 3.97369,-1.76107 0.36125,-0.74507 0.56445,-1.76107 0.6096,-3.04801 v -1.69333 h 0.97085 c 0.6096,0 0.94827,-0.4064 0.94827,-1.12889 v -1.19662 c 0,-0.72249 -0.4064,-1.12889 -1.12889,-1.12889 h -0.83538 l -0.0452,-2.12232 c 0,-0.29351 -0.0677,-0.54186 -0.2032,-0.69991 0.47414,-0.0677 0.72249,-0.47413 0.72249,-1.12889 v -1.30951 c 0,-0.72249 -0.31609,-1.12889 -0.85796,-1.12889 -0.54186,0 -0.85795,0.4064 -0.85795,1.12889 v 1.30951 c 0,0.29351 0.0452,0.54187 0.15804,0.72249 h -0.0903 -1.03858 c -0.72249,0 -1.15147,0.4064 -1.12889,1.15147 l 0.0677,2.07716 h -4.83165 l 0.0677,-2.07716 c 0.0226,-0.74507 -0.4064,-1.15147 -1.12889,-1.15147 h -1.03858 c -0.72249,0 -1.10631,0.36124 -1.12889,1.10631 l -0.0452,2.12232 h -1.01601 c -0.65475,0 -1.016,0.4064 -1.016,1.12889 z m 22.87131,-4.13174 0.0903,2.59645 0.56444,6.07343 c 0.0677,0.72249 0.49671,1.06115 1.19662,1.06115 h 0.63218 c 0.69991,0 1.12889,-0.33866 1.19663,-1.06115 l 0.56444,-6.07343 0.0903,-2.59645 c 0.0226,-0.72249 -0.36124,-1.15147 -1.10631,-1.15147 h -2.12231 c -0.74507,0 -1.12889,0.42898 -1.10632,1.15147 z m -0.13546,13.70473 c 0,1.33209 0.94827,2.30293 2.30293,2.30293 1.33209,0 2.30294,-0.97084 2.30294,-2.30293 0,-1.33209 -0.97085,-2.25778 -2.30294,-2.25778 -1.33209,0 -2.30293,0.92569 -2.30293,2.25778 z"
       id="text1"
       style="font-size:22.5778px;font-family:'Corporate Logo Rounded ver3';-inkscape-font-specification:'Corporate Logo Rounded ver3';fill:#009feb;stroke-width:0.264583"
       aria-label="ポケモンカットだぜ！" /><g
       style="opacity:1;fill:#008080"
       id="g1"
       transform="matrix(0.06095473,0,0,0.05903155,49.989493,138.5816)"><g
         id="g2"
         style="fill:#008080">
	<path
   class="st0"
   d="M 260.847,51.057 C 210.844,88.23 92.606,195.549 3.954,195.549 c -5.836,0 -3.486,4.232 -3.486,4.232 l 77.458,32.376 -47.118,46.646 v 77.175 L 281.961,460.942 512,233.189 V 156.021 Z M 68.485,204.425 c 26.6,-9.94 53.389,-24.653 79.054,-41.188 6.421,-4.135 12.738,-8.416 18.994,-12.73 1.375,-0.951 2.741,-1.886 4.103,-2.846 6.063,-4.232 12.036,-8.506 17.889,-12.802 0.681,-0.499 1.335,-0.991 2.016,-1.491 5.68,-4.192 11.234,-8.377 16.676,-12.528 0.734,-0.565 1.467,-1.113 2.193,-1.677 6.01,-4.612 11.843,-9.142 17.502,-13.592 l 204.576,85.503 c -53.933,41.067 -123.229,87.479 -176.38,87.479 -3.797,0 -7.498,-0.25 -11.012,-0.75 L 116.764,224.595 94.831,215.437 Z m 31.4,36.89 138.155,57.755 c 5.55,0.976 11.23,1.443 17.067,1.443 55.598,0 122.83,-42.211 177.573,-82.842 L 275.596,373.182 58.384,282.415 Z M 490.04,224.031 276.906,435.033 52.768,341.363 V 323.111 L 278.329,417.369 490.04,207.771 Z m 0,-29.248 -213.831,211.703 -223.44,-93.372 v -19.445 l 225.71,94.323 211.561,-209.446 z"
   style="fill:#008080"
   id="path1" />
	<path
   class="st0"
   d="m 209.417,233.947 c 0.802,0.395 1.878,0.274 2.689,-0.314 l 20.4,-9.158 c 2.326,-1.04 4.539,-2.33 6.602,-3.813 L 304.78,173.13 c 0.806,-0.589 0.81,-1.242 0.008,-1.644 l -14.983,-7.433 c -0.939,-0.468 -2.012,-0.678 -3.217,-0.612 l -26.29,0.418 c -1.201,0.057 -2.007,0.314 -2.818,0.903 l -16.7,12.085 c -1.076,0.782 -0.677,1.298 0.661,1.314 l 24.415,-0.04 0.262,0.129 -46.065,33.344 -26.68,12.746 c -0.81,0.58 -0.81,1.241 -0.008,1.636 z"
   style="fill:#008080"
   id="path2" />
</g></g><text
       xml:space="preserve"
       transform="scale(0.26458333)"
       id="text2"
       style="font-style:normal;font-variant:normal;font-weight:normal;font-stretch:normal;font-size:85.3333px;font-family:'Corporate Logo Rounded ver3';-inkscape-font-specification:'Corporate Logo Rounded ver3';white-space:pre;shape-inside:url(#rect2);fill:#009feb;fill-opacity:1" /></g><style
     type="text/css"
     id="style1">
	.st0{fill:#4B4B4B;}
</style></svg>
